# xmcd
#
# Track frame offsets: 
#        150
#        30242
#        55882
#
# Disc length: 1039 seconds
#
# Revision: 0
# Processed by: cddbd v1.5.2PL0 Copyright (c) Steve Scherf et al.
# Submitted via: ExactAudioCopyFreeDBPlugin 1.0
#
DISCID=19040d03
DTITLE=Perri - Feel So Good [CDS)
DYEAR=1989
DGENRE=R&B
TTITLE0=Feel So Good (Extended Version)
TTITLE1=Feel So Good (Single Version)
TTITLE2=Feel So Good (Instrumental)
EXTD=
EXTT0=
EXTT1=
EXTT2=
PLAYORDER=
